<svg width="16" height="16" viewBox="0 0 16 16" fill="none" xmlns="http://www.w3.org/2000/svg">
<path d="M1.66675 2.83325C1.66675 2.70064 1.71943 2.57347 1.81319 2.4797C1.90696 2.38593 2.03414 2.33325 2.16675 2.33325H2.53875C3.17208 2.33325 3.55208 2.75925 3.76875 3.15525C3.91341 3.41925 4.01808 3.72525 4.10008 4.00259C4.12226 4.00083 4.1445 3.99994 4.16675 3.99992H12.4987C13.0521 3.99992 13.4521 4.52925 13.3001 5.06192L12.0814 9.33458C11.9722 9.71782 11.741 10.055 11.4229 10.2951C11.1049 10.5352 10.7173 10.6652 10.3187 10.6653H6.35341C5.95174 10.6653 5.56118 10.5334 5.24176 10.2898C4.92235 10.0463 4.69175 9.70459 4.58541 9.31725L4.07875 7.46925L3.23875 4.63725L3.23808 4.63192C3.13408 4.25392 3.03675 3.89992 2.89141 3.63592C2.75208 3.37925 2.64008 3.33325 2.53941 3.33325H2.16675C2.03414 3.33325 1.90696 3.28057 1.81319 3.18681C1.71943 3.09304 1.66675 2.96586 1.66675 2.83325ZM5.04875 7.22658L5.54942 9.05259C5.64942 9.41392 5.97808 9.66525 6.35341 9.66525H10.3187C10.4999 9.66525 10.6761 9.60623 10.8207 9.49712C10.9653 9.38802 11.0704 9.23477 11.1201 9.06058L12.2781 4.99992H4.39008L5.03941 7.19125L5.04875 7.22658Z" fill="#151875"/>
<path d="M7.33342 12.6666C7.33342 13.0202 7.19294 13.3593 6.94289 13.6094C6.69284 13.8594 6.3537 13.9999 6.00008 13.9999C5.64646 13.9999 5.30732 13.8594 5.05727 13.6094C4.80722 13.3593 4.66675 13.0202 4.66675 12.6666C4.66675 12.313 4.80722 11.9738 5.05727 11.7238C5.30732 11.4737 5.64646 11.3333 6.00008 11.3333C6.3537 11.3333 6.69284 11.4737 6.94289 11.7238C7.19294 11.9738 7.33342 12.313 7.33342 12.6666ZM6.33341 12.6666C6.33341 12.5782 6.2983 12.4934 6.23578 12.4309C6.17327 12.3684 6.08849 12.3333 6.00008 12.3333C5.91168 12.3333 5.82689 12.3684 5.76438 12.4309C5.70187 12.4934 5.66675 12.5782 5.66675 12.6666C5.66675 12.755 5.70187 12.8398 5.76438 12.9023C5.82689 12.9648 5.91168 12.9999 6.00008 12.9999C6.08849 12.9999 6.17327 12.9648 6.23578 12.9023C6.2983 12.8398 6.33341 12.755 6.33341 12.6666Z" fill="#151875"/>
<path d="M12.0002 12.6666C12.0002 13.0202 11.8597 13.3593 11.6096 13.6094C11.3596 13.8594 11.0205 13.9999 10.6668 13.9999C10.3132 13.9999 9.97407 13.8594 9.72402 13.6094C9.47397 13.3593 9.3335 13.0202 9.3335 12.6666C9.3335 12.313 9.47397 11.9738 9.72402 11.7238C9.97407 11.4737 10.3132 11.3333 10.6668 11.3333C11.0205 11.3333 11.3596 11.4737 11.6096 11.7238C11.8597 11.9738 12.0002 12.313 12.0002 12.6666ZM11.0002 12.6666C11.0002 12.5782 10.965 12.4934 10.9025 12.4309C10.84 12.3684 10.7552 12.3333 10.6668 12.3333C10.5784 12.3333 10.4936 12.3684 10.4311 12.4309C10.3686 12.4934 10.3335 12.5782 10.3335 12.6666C10.3335 12.755 10.3686 12.8398 10.4311 12.9023C10.4936 12.9648 10.5784 12.9999 10.6668 12.9999C10.7552 12.9999 10.84 12.9648 10.9025 12.9023C10.965 12.8398 11.0002 12.755 11.0002 12.6666Z" fill="#151875"/>
</svg>
