<svg width="107" height="30" viewBox="0 0 107 30" fill="none" xmlns="http://www.w3.org/2000/svg">
<path d="M21.94 2.59V29H17.608V17.448H5.182V29H0.85V2.59H5.182V13.914H17.608V2.59H21.94ZM46.833 18.018C46.833 18.8033 46.7823 19.5127 46.681 20.146H30.683C30.8096 21.818 31.4303 23.1607 32.545 24.174C33.6596 25.1873 35.0276 25.694 36.649 25.694C38.9796 25.694 40.6263 24.7187 41.589 22.768H46.263C45.6296 24.6933 44.477 26.2767 42.805 27.518C41.1583 28.734 39.1063 29.342 36.649 29.342C34.6476 29.342 32.849 28.8987 31.253 28.012C29.6823 27.1 28.441 25.8333 27.529 24.212C26.6423 22.5653 26.199 20.6653 26.199 18.512C26.199 16.3587 26.6296 14.4713 27.491 12.85C28.3776 11.2033 29.6063 9.93667 31.177 9.05C32.773 8.16333 34.597 7.72 36.649 7.72C38.625 7.72 40.3856 8.15067 41.931 9.012C43.4763 9.87333 44.6796 11.0893 45.541 12.66C46.4023 14.2053 46.833 15.9913 46.833 18.018ZM42.311 16.65C42.2856 15.054 41.7156 13.7747 40.601 12.812C39.4863 11.8493 38.1056 11.368 36.459 11.368C34.9643 11.368 33.685 11.8493 32.621 12.812C31.557 13.7493 30.9236 15.0287 30.721 16.65H42.311ZM59.3801 18.55L69.0321 29H63.1801L55.4281 19.994V29H51.0961V0.88H55.4281V17.22L63.0281 8.062H69.0321L59.3801 18.55ZM77.1911 11.596V23.186C77.1911 23.9713 77.3684 24.5413 77.7231 24.896C78.1031 25.2253 78.7364 25.39 79.6231 25.39H82.2831V29H78.8631C76.9124 29 75.4178 28.544 74.3791 27.632C73.3404 26.72 72.8211 25.238 72.8211 23.186V11.596H70.3511V8.062H72.8211V2.856H77.1911V8.062H82.2831V11.596H77.1911ZM95.3578 29.342C93.3818 29.342 91.5958 28.8987 89.9998 28.012C88.4038 27.1 87.1498 25.8333 86.2378 24.212C85.3258 22.5653 84.8698 20.6653 84.8698 18.512C84.8698 16.384 85.3384 14.4967 86.2758 12.85C87.2131 11.2033 88.4924 9.93667 90.1138 9.05C91.7351 8.16333 93.5464 7.72 95.5478 7.72C97.5491 7.72 99.3604 8.16333 100.982 9.05C102.603 9.93667 103.882 11.2033 104.82 12.85C105.757 14.4967 106.226 16.384 106.226 18.512C106.226 20.64 105.744 22.5273 104.782 24.174C103.819 25.8207 102.502 27.1 100.83 28.012C99.1831 28.8987 97.3591 29.342 95.3578 29.342ZM95.3578 25.58C96.4724 25.58 97.5111 25.314 98.4738 24.782C99.4618 24.25 100.26 23.452 100.868 22.388C101.476 21.324 101.78 20.032 101.78 18.512C101.78 16.992 101.488 15.7127 100.906 14.674C100.323 13.61 99.5504 12.812 98.5878 12.28C97.6251 11.748 96.5864 11.482 95.4718 11.482C94.3571 11.482 93.3184 11.748 92.3558 12.28C91.4184 12.812 90.6711 13.61 90.1138 14.674C89.5564 15.7127 89.2778 16.992 89.2778 18.512C89.2778 20.7667 89.8478 22.5147 90.9878 23.756C92.1531 24.972 93.6098 25.58 95.3578 25.58Z" fill="black"/>
</svg>
