<svg width="12" height="12" viewBox="0 0 12 12" fill="none" xmlns="http://www.w3.org/2000/svg">
<circle cx="6" cy="6" r="6" fill="#FB2E86"/>
<path d="M8.62242 4.5777C8.61919 4.33534 8.57382 4.09539 8.48834 3.86858C8.41421 3.67727 8.30099 3.50353 8.15591 3.35845C8.01083 3.21337 7.83709 3.10015 7.64578 3.02602C7.42189 2.94198 7.18535 2.89653 6.94626 2.89162C6.63842 2.87786 6.54082 2.87402 5.75938 2.87402C4.97794 2.87402 4.87778 2.87402 4.57218 2.89162C4.33319 2.89657 4.09677 2.94201 3.87298 3.02602C3.68164 3.1001 3.50786 3.2133 3.36278 3.35839C3.2177 3.50347 3.10449 3.67724 3.03042 3.86858C2.9462 4.09231 2.90086 4.32878 2.89634 4.56778C2.88258 4.87594 2.87842 4.97354 2.87842 5.75498C2.87842 6.53642 2.87842 6.63626 2.89634 6.94218C2.90114 7.18154 2.94626 7.4177 3.03042 7.64202C3.10462 7.83331 3.2179 8.00701 3.36304 8.15203C3.50817 8.29705 3.68196 8.41021 3.8733 8.48426C4.09648 8.57169 4.33294 8.62038 4.5725 8.62826C4.88066 8.64202 4.97826 8.64618 5.7597 8.64618C6.54114 8.64618 6.6413 8.64618 6.9469 8.62826C7.18599 8.62355 7.42253 8.57822 7.64642 8.49418C7.83768 8.41997 8.01138 8.30672 8.15645 8.16165C8.30151 8.01659 8.41476 7.84288 8.48898 7.65162C8.57314 7.42762 8.61826 7.19146 8.62306 6.95178C8.63682 6.64394 8.64098 6.54634 8.64098 5.76458C8.64034 4.98314 8.64034 4.88394 8.62242 4.5777ZM5.75746 7.23274C4.94018 7.23274 4.2781 6.57066 4.2781 5.75338C4.2781 4.9361 4.94018 4.27402 5.75746 4.27402C6.14981 4.27402 6.52609 4.42988 6.80352 4.70732C7.08096 4.98475 7.23682 5.36103 7.23682 5.75338C7.23682 6.14573 7.08096 6.52201 6.80352 6.79945C6.52609 7.07688 6.14981 7.23274 5.75746 7.23274ZM7.2957 4.56426C7.10466 4.56426 6.95074 4.41002 6.95074 4.2193C6.95074 4.17402 6.95966 4.12919 6.97698 4.08735C6.99431 4.04552 7.01971 4.00751 7.05173 3.97549C7.08374 3.94348 7.12176 3.91808 7.16359 3.90075C7.20542 3.88342 7.25026 3.8745 7.29554 3.8745C7.34082 3.8745 7.38565 3.88342 7.42749 3.90075C7.46932 3.91808 7.50733 3.94348 7.53935 3.97549C7.57137 4.00751 7.59676 4.04552 7.61409 4.08735C7.63142 4.12919 7.64034 4.17402 7.64034 4.2193C7.64034 4.41002 7.4861 4.56426 7.2957 4.56426Z" fill="white"/>
<path d="M5.75784 6.71416C6.28856 6.71416 6.7188 6.28392 6.7188 5.7532C6.7188 5.22247 6.28856 4.79224 5.75784 4.79224C5.22711 4.79224 4.79688 5.22247 4.79688 5.7532C4.79688 6.28392 5.22711 6.71416 5.75784 6.71416Z" fill="white"/>
</svg>
